<svg width="585" height="503" viewBox="0 0 585 503" fill="none" xmlns="http://www.w3.org/2000/svg">
<path d="M3.96307 219V0.818175H50.0923V90.8395H143.736V0.818175H189.759V219H143.736V128.872H50.0923V219H3.96307ZM212.791 219V0.818175H359.808V38.8508H258.92V90.8395H352.244V128.872H258.92V180.967H360.234V219H212.791ZM368.699 0.818175H420.368L470.119 94.7812H472.25L522.001 0.818175H573.67L494.089 141.869V219H448.279V141.869L368.699 0.818175ZM196.47 357.203H149.808C148.956 351.166 147.216 345.804 144.588 341.116C141.96 336.358 138.587 332.31 134.467 328.972C130.348 325.634 125.589 323.077 120.192 321.301C114.865 319.526 109.077 318.638 102.827 318.638C91.5341 318.638 81.6974 321.443 73.3168 327.054C64.9361 332.594 58.4375 340.69 53.821 351.344C49.2045 361.926 46.8963 374.781 46.8963 389.909C46.8963 405.463 49.2045 418.531 53.821 429.114C58.5085 439.696 65.0426 447.686 73.4233 453.084C81.804 458.482 91.4986 461.18 102.507 461.18C108.686 461.18 114.403 460.364 119.659 458.73C124.986 457.097 129.709 454.717 133.828 451.592C137.947 448.396 141.357 444.526 144.055 439.98C146.825 435.435 148.743 430.25 149.808 424.426L196.47 424.639C195.263 434.653 192.244 444.312 187.415 453.616C182.656 462.849 176.229 471.124 168.132 478.439C160.107 485.683 150.518 491.436 139.368 495.697C128.288 499.888 115.753 501.983 101.761 501.983C82.3011 501.983 64.9006 497.58 49.5597 488.773C34.2898 479.966 22.2159 467.217 13.3381 450.527C4.53125 433.837 0.127841 413.631 0.127841 389.909C0.127841 366.116 4.60227 345.875 13.5511 329.185C22.5 312.494 34.6449 299.781 49.9858 291.045C65.3267 282.239 82.5852 277.835 101.761 277.835C114.403 277.835 126.122 279.611 136.918 283.162C147.784 286.713 157.408 291.898 165.788 298.716C174.169 305.463 180.987 313.737 186.243 323.538C191.57 333.339 194.979 344.561 196.47 357.203ZM280.6 502.196C265.543 502.196 252.546 499.497 241.609 494.099C230.671 488.702 222.255 481.386 216.36 472.153C210.536 462.849 207.624 452.48 207.624 441.045C207.624 432.523 209.329 424.959 212.738 418.354C216.147 411.749 220.906 405.676 227.013 400.136C233.121 394.526 240.224 388.95 248.32 383.411L290.614 355.605C296.083 352.125 300.096 348.467 302.653 344.632C305.21 340.726 306.488 336.5 306.488 331.955C306.488 327.622 304.748 323.609 301.268 319.916C297.788 316.223 292.852 314.412 286.46 314.483C282.198 314.483 278.505 315.442 275.38 317.359C272.255 319.206 269.805 321.656 268.029 324.71C266.325 327.693 265.472 331.031 265.472 334.724C265.472 339.27 266.751 343.886 269.308 348.574C271.864 353.261 275.273 358.233 279.535 363.489C283.796 368.673 288.448 374.284 293.491 380.321L396.935 499H349.634L263.342 402.906C257.66 396.443 251.978 389.696 246.296 382.665C240.685 375.562 235.998 368.034 232.234 360.08C228.469 352.054 226.587 343.354 226.587 333.979C226.587 323.396 229.038 313.879 233.938 305.428C238.91 296.976 245.87 290.3 254.819 285.399C263.768 280.428 274.208 277.942 286.14 277.942C297.788 277.942 307.837 280.321 316.289 285.08C324.812 289.767 331.346 296.017 335.891 303.83C340.508 311.571 342.816 320.094 342.816 329.398C342.816 339.696 340.259 349.036 335.146 357.416C330.103 365.726 323.001 373.183 313.839 379.788L269.308 411.855C263.271 416.259 258.796 420.768 255.884 425.385C253.043 429.93 251.623 434.298 251.623 438.489C251.623 443.673 252.901 448.325 255.458 452.445C258.015 456.564 261.637 459.831 266.325 462.246C271.012 464.589 276.516 465.761 282.837 465.761C290.508 465.761 298.072 464.021 305.529 460.541C313.058 456.99 319.876 451.983 325.984 445.52C332.163 438.986 337.099 431.244 340.792 422.295C344.485 413.347 346.332 403.439 346.332 392.572H383.938C383.938 405.925 382.482 417.963 379.57 428.688C376.658 439.341 372.61 448.645 367.425 456.599C362.241 464.483 356.31 470.946 349.634 475.989C347.504 477.338 345.444 478.616 343.455 479.824C341.467 481.031 339.407 482.31 337.276 483.659C329.18 490.193 320.124 494.916 310.11 497.828C300.167 500.74 290.33 502.196 280.6 502.196ZM584.19 280.818V499H544.347L449.425 361.678H447.827V499H401.697V280.818H442.18L536.357 418.034H538.274V280.818H584.19Z" fill="#990101"/>
</svg>
